<?xml version="1.0" encoding="UTF-8"?>
<svg width="1200pt" height="1200pt" version="1.1" viewBox="0 0 1200 1200" xmlns="http://www.w3.org/2000/svg">
 <path d="m649.19 556.79v-152.16c77.711 10.801 98.844 53.281 99.562 54.77 7.5586 17.891 28.188 26.258 46.043 18.73 17.879-7.5586 26.258-28.176 18.73-46.055-1.5859-3.7305-37.465-84.254-164.33-98.016v-64.824c0-19.414-15.73-35.16-35.148-35.16-19.402 0-35.137 15.742-35.137 35.16v64.43c-126.15 13.219-160.91 102.41-160.91 151.43 0 21.961 8.207 126.02 160.91 138.96v171.59c-96.18-12.469-125.94-77.699-127.55-81.422-7.3086-17.785-27.613-26.387-45.59-19.223-18.012 7.2227-26.746 27.707-19.512 45.707 1.957 4.8477 46.68 111.71 192.65 125.86v64.246c0 19.402 15.73 35.137 35.137 35.137 19.414 0 35.148-15.73 35.148-35.137v-64.621c158.45-16.945 167.09-140.48 167.09-166.69-0.011719-22.453-8.6406-128.2-167.09-142.7zm-160.92-71.699c0-3.0469 1.4414-67.715 90.637-80.578v148.86c-80.883-8.6562-90.637-49.504-90.637-68.281zm160.92 310.26v-167.88c88.969 10.262 96.805 56.578 96.805 72.023 0 32.34-13.656 83.977-96.805 95.855z"/>
</svg>
