<?xml version="1.0" encoding="UTF-8"?>
<svg width="1200pt" height="1200pt" version="1.1" viewBox="0 0 1200 1200" xmlns="http://www.w3.org/2000/svg">
 <path d="m726.56 115.23c16.707 6.7578 26.242 24.445 22.711 42.121l-66.031 330.14h141.76c13.719 0 26.34 7.4883 32.914 19.531 6.5742 12.039 6.0469 26.707-1.3672 38.246l-337.5 525c-9.75 15.16-28.898 21.242-45.609 14.484-16.707-6.7578-26.242-24.445-22.711-42.117l66.031-330.14h-141.76c-13.719 0-26.34-7.4883-32.914-19.531-6.5742-12.039-6.0469-26.711 1.3711-38.25l337.5-525c9.75-15.16 28.898-21.246 45.609-14.488zm-282.88 522.27h118.81c11.234 0 21.879 5.0352 29 13.727 7.125 8.6875 9.9727 20.109 7.7734 31.129l-36.129 180.62 193.17-300.48h-118.81c-11.234 0-21.879-5.0352-29-13.727-7.125-8.6875-9.9727-20.113-7.7734-31.129l36.129-180.62z" fill-rule="evenodd"/>
</svg>
