<?xml version="1.0" encoding="UTF-8"?>
<svg width="1200pt" height="1200pt" version="1.1" viewBox="0 0 1200 1200" xmlns="http://www.w3.org/2000/svg">
 <path d="m450 881.26h-225c-10.312 0-18.75 8.4375-18.75 18.75v112.5c0 10.312 8.4375 18.75 18.75 18.75h225c10.312 0 18.75-8.4375 18.75-18.75v-112.5c0-10.312-8.4375-18.75-18.75-18.75zm-18.75 112.5h-187.5v-75h187.5zm225-281.26h75c10.312 0 18.75-8.4375 18.75-18.75v-75c0-10.312-8.4375-18.75-18.75-18.75h-75c-10.312 0-18.75 8.4375-18.75 18.75v75c0 10.312 8.4375 18.75 18.75 18.75zm18.75-75h37.5v37.5h-37.5zm131.26 75h75c10.312 0 18.75-8.4375 18.75-18.75v-75c0-10.312-8.4375-18.75-18.75-18.75h-75c-10.312 0-18.75 8.4375-18.75 18.75v75c0 10.312 8.4375 18.75 18.75 18.75zm18.75-75h37.5v37.5h-37.5zm131.26 75h75c10.312 0 18.75-8.4375 18.75-18.75v-75c0-10.312-8.4375-18.75-18.75-18.75h-75c-10.312 0-18.75 8.4375-18.75 18.75v75c0 10.312 8.4375 18.75 18.75 18.75zm18.75-75h37.5v37.5h-37.5zm-318.74 225h75c10.312 0 18.75-8.4375 18.75-18.75v-75c0-10.312-8.4375-18.75-18.75-18.75h-75c-10.312 0-18.75 8.4375-18.75 18.75v75c0 10.312 8.4375 18.75 18.75 18.75zm18.75-75h37.5v37.5h-37.5zm131.26 75h75c10.312 0 18.75-8.4375 18.75-18.75v-75c0-10.312-8.4375-18.75-18.75-18.75h-75c-10.312 0-18.75 8.4375-18.75 18.75v75c0 10.312 8.4375 18.75 18.75 18.75zm18.75-75h37.5v37.5h-37.5zm131.26 75h75c10.312 0 18.75-8.4375 18.75-18.75v-75c0-10.312-8.4375-18.75-18.75-18.75h-75c-10.312 0-18.75 8.4375-18.75 18.75v75c0 10.312 8.4375 18.75 18.75 18.75zm18.75-75h37.5v37.5h-37.5zm131.26-356.26h-93.75v-125.26c0-25.5-15.562-47.438-37.5-57v-42.75c0-20.625-16.875-37.5-37.5-37.5h-18.75v-18.75c0-51.75-42-93.75-93.75-93.75h-150c-30.75 0-57.938 15.188-75 38.062-17.062-23.062-44.25-38.062-75-38.062h-150c-51.75 0-93.75 42-93.75 93.75v18.75h-18.75c-20.625 0-37.5 16.875-37.5 37.5v42.75c-21.938 9.5625-37.5 31.5-37.5 57v289.31c-58.688 28.125-92.625 66.188-104.62 81.562-15.375 4.6875-26.625 18.75-26.625 35.812v37.5c0 13.875 7.6875 25.688 18.75 32.25v342.74c0 10.312 8.4375 18.75 18.75 18.75h1012.5c10.312 0 18.75-8.4375 18.75-18.75v-567.74c11.062-6.5625 18.75-18.562 18.75-32.25v-56.25c0-20.625-16.875-37.5-37.5-37.5zm0 93.75h-525v-56.25h525zm-893.26 99.75s0.75-0.375 0.9375-0.5625c32.812-14.062 73.688-24.188 123.37-24.188 103.69 0 168.94 44.062 201.94 75h-403.69c17.062-15.938 42.562-35.25 77.625-50.25zm424.5-418.5v37.5h-75v-37.5zm-87.75 75h100.5c13.688 0 24.75 11.062 24.75 24.75v125.26h-93.75c-20.625 0-37.5 16.875-37.5 37.5v56.25c0 13.875 7.6875 25.688 18.75 32.25v88.125c-10.125-9.1875-22.688-19.125-37.5-28.875v-310.31c0-13.688 11.062-24.75 24.75-24.75zm-456 431.26h487.5v37.5h-487.5zm731.26-281.26v-125.26c0-13.688 11.062-24.75 24.75-24.75h100.5c13.688 0 24.75 11.062 24.75 24.75v125.26zm112.5-187.5h-75v-37.5h75zm-262.5-150h150c30.938 0 56.25 25.312 56.25 56.25v18.75h-18.75c-20.625 0-37.5 16.875-37.5 37.5v42.75c-21.938 9.5625-37.5 31.5-37.5 57v125.26h-75v-125.26c0-25.5-15.562-47.438-37.5-57v-42.75c0-20.625-16.875-37.5-37.5-37.5h-18.75v-18.75c0-30.938 25.312-56.25 56.25-56.25zm-356.26 56.25c0-30.938 25.312-56.25 56.25-56.25h150c30.938 0 56.25 25.312 56.25 56.25v18.75h-18.75c-20.625 0-37.5 16.875-37.5 37.5v42.75c-21.938 9.5625-37.5 31.5-37.5 57v289.31c-21.562-10.312-46.5-19.125-75-24.938v-264.19c0-25.5-15.562-47.438-37.5-57v-42.75c0-20.625-16.875-37.5-37.5-37.5h-18.75zm-56.25 56.25h75v37.5h-75zm-37.5 99.75c0-13.688 11.062-24.75 24.75-24.75h100.5c13.688 0 24.75 11.062 24.75 24.75v258.56c-12-1.125-24.375-2.0625-37.5-2.0625-43.312 0-80.625 6.9375-112.5 17.625zm-112.5 481.5h450v318.74h-450zm656.26 318.74v-150h150v150zm318.74 0h-131.26v-168.74c0-10.312-8.4375-18.75-18.75-18.75h-187.5c-10.312 0-18.75 8.4375-18.75 18.75v168.74h-131.26v-324c11.062-6.5625 18.75-18.562 18.75-32.25v-37.5c0-13.875-7.6875-25.688-18.75-32.25v-117.75h487.5z"/>
</svg>
