<?xml version="1.0" encoding="UTF-8"?>
<svg width="1200pt" height="1200pt" version="1.1" viewBox="0 0 1200 1200" xmlns="http://www.w3.org/2000/svg">
 <path d="m573.38 48c-5.3867 0.34375-10.496 2.4922-14.512 6.0977-4.0156 3.6055-6.6953 8.4609-7.6133 13.777-30.344 175.76-96.711 245.59-160.5 312.38s-126.75 133.85-126.75 280.12c0 72.395 32.402 133.61 79.875 180.38s109.78 80.438 173.62 101.62c6.6602 2.1953 13.945 1.3633 19.945-2.2695 5.9961-3.6328 10.105-9.707 11.246-16.625s-0.80078-13.988-5.3164-19.355c-60.129-72.059-75.199-121.93-73.875-161.62 1.0547-31.594 14.223-59.559 28.875-88.875 27.695 15.984 54.559 24.57 78 17.625 30.762-9.1133 49.77-35.223 61.875-62.625 12.707-28.758 19.031-60.004 22.125-88.5 66.574 77.965 91.18 143.92 90.375 199.5-1.1328 78.172-48.555 142.14-92.25 182.25-4.9961 4.6914-7.7461 11.297-7.5625 18.145 0.1875 6.8516 3.293 13.297 8.5352 17.711 5.2422 4.4141 12.121 6.3789 18.902 5.3945 134.55-18.832 257.62-135.63 257.62-284.62 0-102.3-17.938-194.5-70.5-289.88s-138.73-193.93-274.5-314.62c-4.8281-4.2891-11.184-6.4531-17.625-6zm14.625 69c115.54 105.93 190.79 193.75 235.5 274.88 48.574 88.137 64.5 169.76 64.5 266.62 0 93.66-62.254 173.58-141.38 213 28.406-41.215 51.258-91.227 52.125-151.12 1.1875-81.891-38.504-174.86-144.38-279-4.7578-4.8398-11.344-7.4414-18.125-7.1562s-13.125 3.4297-17.461 8.6523c-4.3359 5.2227-6.2578 12.035-5.2891 18.754 2.2383 16.883-0.91016 86.277-19.125 127.5-9.1055 20.609-20.375 32.703-31.5 36s-29.227 1.0742-60-23.625c-5.7031-4.625-13.211-6.3828-20.371-4.7734-7.1641 1.6055-13.199 6.4062-16.379 13.023-18.242 36.434-42.828 77.477-44.625 131.25-1.2031 36.008 9.75 76.535 35.625 122.25-29.598-16.059-57.145-34.602-79.5-56.625-40.555-39.957-65.625-87.93-65.625-146.25 0-133.42 49.496-179.99 113.62-247.12 58.73-61.484 126.46-141.27 162.38-296.25zm-133.5 891c-8.5742 0.40234-16.281 5.3477-20.223 12.973-3.9375 7.6289-3.5078 16.777 1.125 24 4.6367 7.2266 12.773 11.43 21.348 11.027h277.12c6.4258 0.089844 12.617-2.3984 17.191-6.9062 4.5742-4.5117 7.1523-10.668 7.1523-17.094s-2.5781-12.582-7.1523-17.094c-4.5742-4.5078-10.766-6.9961-17.191-6.9062h-277.12c-0.75-0.035156-1.5-0.035156-2.25 0zm-78.75 96c-6.3672 0.29688-12.352 3.1133-16.645 7.8242-4.2891 4.7109-6.5352 10.934-6.2344 17.301 0.29688 6.3672 3.1133 12.352 7.8242 16.645 4.7148 4.2891 10.938 6.5312 17.305 6.2305h434.25c6.4258 0.089844 12.617-2.3984 17.191-6.9062 4.5742-4.5117 7.1523-10.668 7.1523-17.094s-2.5781-12.582-7.1523-17.094c-4.5742-4.5078-10.766-6.9961-17.191-6.9062h-434.25c-0.75-0.035156-1.5-0.035156-2.25 0z"/>
</svg>
