<?xml version="1.0" encoding="UTF-8"?>
<svg width="1200pt" height="1200pt" version="1.1" viewBox="0 0 1200 1200" xmlns="http://www.w3.org/2000/svg">
 <path d="m615 797.44c33.562-17.438 63.75-40.312 90-67.5 8.625 0.75 17.438 1.3125 26.25 1.3125 186 0 337.5-151.5 337.5-337.5s-151.5-337.5-337.5-337.5c-80.438 0-154.31 28.312-212.44 75.562-8.8125-1.6875-18.188-3.1875-27.938-4.3125-102.94-11.438-201.94 19.875-278.44 88.5-75.562 67.5-118.69 164.44-118.69 265.69 0 131.81 72.188 252.19 188.26 314.26 33.562 18 61.688 48.188 80.25 85.5h-119.25c-27 0-50.062 19.125-55.125 45.562l-28.875 150c-3.1875 16.5 1.125 33.562 11.812 46.5s26.438 20.438 43.312 20.438h471.74c16.875 0 32.625-7.5 43.312-20.438s15-30 11.812-46.5l-28.875-150c-5.0625-26.438-28.312-45.562-55.125-45.562h-119.44c17.062-36.75 44.25-66.375 77.438-83.812zm416.26-403.69c0 165.37-134.63 300-300 300-165.37 0-300-134.63-300-300s134.63-300 300-300c165.37 0 300 134.63 300 300zm-511.13 262.87c-22.125 8.8125-45.938 13.688-70.125 13.688-104.06 0-188.81-84.75-188.81-188.81 0-88.875 62.438-164.44 146.63-183.74-9 30.562-14.062 62.625-14.062 96 0 106.12 49.312 201 126.37 262.87zm155.26 277.31 28.875 150c1.5 7.5-1.875 12.938-3.9375 15.562-3.5625 4.3125-8.8125 6.75-14.438 6.75h-471.74c-5.625 0-10.875-2.4375-14.438-6.75-2.0625-2.4375-5.4375-7.875-3.9375-15.562l28.875-150c1.6875-8.8125 9.375-15.188 18.375-15.188h135.74l54 125.81c3 6.9375 9.75 11.438 17.25 11.438s14.25-4.5 17.25-11.438l54-125.81h135.74c9 0 16.688 6.375 18.375 15.188zm-174.94-61.688-50.438 117.56-48-112.12c-21.562-50.25-57.938-90.938-102.38-114.94-103.88-55.5-168.37-163.31-168.37-281.26 0-90.562 38.812-177.19 106.31-237.74 67.875-60.75 155.26-88.688 246.74-79.312-25.125 27.188-46.125 58.312-61.312 92.625-112.5 13.5-199.31 109.69-199.31 224.44 0 124.87 101.62 226.31 226.31 226.31 36.938 0 72.938-9.375 105.38-26.625 31.312 19.125 65.625 33.562 102.56 41.625-18.375 15.938-38.438 29.812-60.188 41.25-42.562 22.312-77.062 60.75-97.125 108zm232.13-234.74h1.5c59.25-2.625 103.69-24 131.63-63.375 61.125-85.688 20.438-225.37 18.562-231.19-2.4375-8.4375-10.5-13.688-19.125-13.312-8.625 0.5625-15.938 6.9375-17.438 15.562-2.25 13.688-11.062 25.875-20.438 35.438 9.375-53.062-5.625-91.688-42.75-109.69-23.438-11.25-23.438-72-19.688-99.562 0.75-6.375-1.5-12.562-6.375-16.688s-11.438-5.4375-17.625-3.75c-2.0625 0.75-53.062 16.688-88.125 96-23.812 54-8.4375 95.438 1.6875 123 8.625 23.625 9.1875 28.5 3.75 33.75-1.5 1.5-2.4375 1.875-2.625 1.875-7.3125 0-25.688-26.438-36.938-57-2.8125-7.5-9.5625-12.938-18-12.375-8.0625 0-15 5.25-17.438 12.938-29.812 91.125-26.625 163.5 9.375 215.26 48.188 69.188 136.13 73.312 139.87 73.312zm-126.19-229.87c10.5 15.75 24 30.188 40.125 34.125 13.125 3.1875 26.25-0.5625 37.312-10.688 24.938-23.062 14.438-51.375 6-74.25-9.5625-25.688-20.25-54.75-2.625-94.875 12.375-28.125 26.625-46.125 38.438-57.375 0.375 35.062 7.6875 83.062 42.75 100.12 23.25 11.25 30 38.438 19.875 80.438-3.375 14.25 2.4375 28.312 14.812 36s28.125 6.375 39-3c6-5.0625 11.25-10.125 16.125-15.562 6 43.688 7.3125 107.06-23.062 149.81-21 29.25-55.125 45.375-101.81 47.625-7.3125-0.5625-74.812-6.5625-110.06-57.562-22.688-32.812-28.312-78.188-16.875-134.81z"/>
</svg>
