<?xml version="1.0" encoding="UTF-8"?>
<svg width="1200pt" height="1200pt" version="1.1" viewBox="0 0 1200 1200" xmlns="http://www.w3.org/2000/svg">
 <path d="m955.31 137.06c7.3125 0 13.219-5.7656 13.219-13.219 0-7.3125-6-13.219-13.219-13.219h-710.63c-7.3125 0-13.219 6-13.219 13.219 0 7.4531 6 13.219 13.219 13.219h51.938v77.062h-18.375c-23.531 0-42.469 18.938-42.469 42.469v819.71c0 7.3125 6 13.219 13.219 13.219h702.24c7.3125 0 13.219-6 13.219-13.219v-819.74c0-23.531-19.219-42.469-42.469-42.469h-18.938v-77.062zm-284.02 0h89.297v77.062h-89.297zm-230.9 0h88.219v77.062l-88.219-0.046875zm172.31 925.87h-350.63v-806.39c0-9 7.3125-16.078 16.078-16.078h334.55zm200.29-113.16h-173.86v-98.766h173.76l-0.046876 98.766zm0-250.4h-173.86v-96h173.76l-0.046876 96zm0-248.44h-173.86v-98.156h173.76l-0.046876 98.156zm108.84-210.56c8.8594 0 16.078 7.0781 16.078 16.078v806.53h-98.531v-822.61z"/>
</svg>
