<?xml version="1.0" encoding="UTF-8"?>
<svg width="1200pt" height="1200pt" version="1.1" viewBox="0 0 1200 1200" xmlns="http://www.w3.org/2000/svg">
 <path d="m1031.3 196.87c67.312 0 121.87 54.562 121.87 121.87v562.5c0 67.312-54.562 121.87-121.87 121.87h-862.5c-67.312 0-121.87-54.562-121.87-121.87v-562.5c0-67.312 54.562-121.87 121.87-121.87zm0 56.25h-862.5c-36.281 0-65.625 29.344-65.625 65.625v562.5c0 36.281 29.344 65.625 65.625 65.625h862.5c36.281 0 65.625-29.344 65.625-65.625v-562.5c0-36.281-29.391-65.625-65.625-65.625zm-15.234 412.5h-303.52c-15.516 0-28.125-12.609-28.125-28.125s12.609-28.125 28.125-28.125h12.891v-84.375c0-15.516 12.609-28.125 28.125-28.125 15.516 0 28.125 12.609 28.125 28.125v84.375h18.75v-182.48c0-15.516 12.609-28.125 28.125-28.125 15.516 0 28.125 12.609 28.125 28.125v182.48h18.75v-140.16c0-15.516 12.609-28.125 28.125-28.125 15.516 0 28.125 12.609 28.125 28.125v140.16h15.234v-234.37c0-15.516 12.609-28.125 28.125-28.125 15.516 0 28.125 12.609 28.125 28.125v234.37h12.891c15.516 0 28.125 12.609 28.125 28.125s-12.609 28.125-28.125 28.125zm-459.37-95.672c0 109.64-89.016 198.66-198.66 198.66-109.64 0-198.66-88.969-198.66-198.66 0-109.59 88.969-198.66 198.66-198.66 15.516 0 28.125 12.609 28.125 28.125v142.4h142.4c15.516 0 28.125 12.609 28.125 28.125zm-59.062 28.125h-139.6c-15.516 0-28.125-12.609-28.125-28.125v-139.6c-65.156 13.031-114.28 70.594-114.28 139.6 0 78.609 63.797 142.4 142.4 142.4 68.953 0 126.52-49.125 139.6-114.28zm-85.922-238.74c0-6.1875 2.5781-12.094 7.1719-16.219 4.5938-4.1719 10.688-6.1406 16.781-5.5312 80.062 11.203 143.53 74.719 154.22 154.78 0.60938 6-1.4062 11.953-5.3906 16.406-4.0312 4.4531-9.7969 7.0312-15.844 7.0312-34.828 0.46875-100.88 0.46875-135.1 0.46875-12.094 0-21.844-9.75-21.844-21.844zm225.84 531.28c-15.516 0-28.125-12.609-28.125-28.125s12.609-28.125 28.125-28.125h375c15.516 0 28.125 12.609 28.125 28.125s-12.609 28.125-28.125 28.125zm-225 0c-15.516 0-28.125-12.609-28.125-28.125s12.609-28.125 28.125-28.125h112.5c15.516 0 28.125 12.609 28.125 28.125s-12.609 28.125-28.125 28.125zm-225 0c-15.516 0-28.125-12.609-28.125-28.125s12.609-28.125 28.125-28.125h112.5c15.516 0 28.125 12.609 28.125 28.125s-12.609 28.125-28.125 28.125z" fill-rule="evenodd"/>
</svg>
