<?xml version="1.0" encoding="UTF-8"?>
<svg width="1200pt" height="1200pt" version="1.1" viewBox="0 0 1200 1200" xmlns="http://www.w3.org/2000/svg">
 <path d="m1084.9 592.69c-0.60938-0.60938-198.24-169.45-199.45-170.39-2.1562-1.6875-4.6875-2.5312-7.4531-2.5312h-156.32c-6.6094 0-12 5.3906-12 12v263.02h-109.55c43.781-27.609 73.078-76.219 73.078-131.76v-19.547c0-85.781-69.844-155.63-155.63-155.63h-72.234v-37.781h18.938c6.6094 0 12-5.3906 12-12v-59.391c0-6.6094-5.3906-12-12-12l-155.29-0.046876c-6.6094 0-12 5.3906-12 12v59.391c0 6.6094 5.3906 12 12 12h18.938v37.781h-60.703c-85.781 0-155.63 69.844-155.63 155.63v19.547c0 55.453 29.297 104.16 73.078 131.76h-31.312c-6.6094 0-12 5.3906-12 12v154.45c0 6.6094 5.3906 12 12 12h70.453c4.9219 13.922 13.312 26.297 24.141 36.141l-124.36 0.046874c-6.6094 0-12 5.3906-12 12 0 6.6094 5.3906 12 12 12h952.78c6.6094 0 12-5.3906 12-12 0-6.6094-5.3906-12-12-12h-117.47c10.781-9.7031 19.078-22.078 24.141-36.141h93.375c6.6094 0 12-5.3906 12-12l-0.046875-260.02c0-3.1406-1.3125-6.2812-3.4688-8.5312zm-744.98-180.84h155.9v282.94h-206.76v-282.94zm309.37 131.63v19.547c0 71.859-57.844 130.31-129.47 131.53v-282.61c71.531 1.2188 129.47 59.672 129.47 131.53zm-328.31-252.84h131.29v35.391h-131.26zm30.938 59.438h69.375v37.781h-69.375zm-216.32 213v-19.547c0-71.859 57.844-130.31 129.47-131.53v282.71c-71.531-1.2188-129.47-59.766-129.47-131.63zm29.859 286.18v-130.45h544.22v130.45h-314.29c0.14062-1.7812 0.23438-3.6094 0.23438-5.3906 0-48.703-39.703-88.453-88.453-88.453-48.703 0-88.453 39.703-88.453 88.453 0 1.7812 0.14062 3.6094 0.23438 5.3906zm141.74 59.062c-35.531 0-64.453-28.922-64.453-64.453s28.922-64.453 64.453-64.453 64.453 28.922 64.453 64.453c-0.046875 35.531-28.828 64.453-64.453 64.453zm59.25 1.0781c10.781-9.7031 19.078-22.078 24.141-36.141h425.76c4.9219 13.922 13.312 26.297 24.141 36.141zm468.74-65.438c0-35.531 28.922-64.453 64.453-64.453s64.453 28.922 64.453 64.453-28.922 64.453-64.453 64.453-64.453-28.922-64.453-64.453zm152.63 5.2969c0.14062-1.7812 0.23437-3.6094 0.23437-5.3906 0-48.703-39.703-88.453-88.453-88.453-48.703 0-88.453 39.703-88.453 88.453 0 1.7812 0.14063 3.6094 0.23438 5.3906h-77.766l0.046876-142.45v-263.02h139.92c23.625 20.156 166.55 142.22 190.78 162.94v118.45h-32.156c-6.6094 0-12 5.3906-12 12s5.3906 12 12 12h32.156v100.08z"/>
 <path d="m855.47 498.14c-2.1562-1.7812-4.9219-2.8594-7.7812-2.8594h-48c-6.6094 0-12 5.3906-12 12v154.55c0 6.6094 5.3906 12 12 12h200.06c6.6094 0 12-5.3906 12-12v-24.609c0-3.4688-1.5469-6.8438-4.2188-9.1406zm132.24 151.55h-176.02v-130.45h31.547l144.37 123.37v7.0781z"/>
 <path d="m307.22 819.14c-13.688 0-24.844 11.156-24.844 24.844s11.156 24.844 24.844 24.844 24.844-11.156 24.844-24.844-11.062-24.844-24.844-24.844zm0 25.547v-1.6875c0.46875 0 0.84375 0.375 0.84375 0.84375z"/>
 <path d="m899.63 868.69c13.688 0 24.844-11.156 24.844-24.844s-11.156-24.844-24.844-24.844-24.844 11.156-24.844 24.844 11.156 24.844 24.844 24.844zm0-25.547c0.46875 0 0.84375 0.375 0.84375 0.84375l-0.84375 0.84375z"/>
 <path d="m330.94 620.86c19.922 29.531 54.938 30.938 61.078 30.938h0.70312c6.2344 0 41.297-1.3125 61.078-30.938 10.312-15.469 14.062-35.062 10.219-55.219-1.6875-9.2344-5.5312-16.547-12.234-29.859-4.7812-9.4688-10.922-19.781-25.922-42.141-6-8.8594-14.062-20.391-23.766-33.938-2.2969-3.1406-5.8594-4.9219-9.7031-4.9219s-7.4531 1.7812-9.7031 4.9219c-9.7031 13.453-17.766 25.078-23.766 33.938-15.141 22.219-21.141 32.625-26.062 42.141-6.8438 13.312-10.547 20.625-12.234 29.859-3.7031 20.203 0 39.75 10.312 55.219zm13.359-50.719c1.0781-5.7656 3.8438-11.297 10.078-23.391 3.6094-7.0781 8.5312-15.938 24.469-39.469 3.7031-5.5312 8.2969-12.234 13.688-19.688 5.2969 7.5469 9.8438 14.156 13.688 19.688 15.938 23.531 20.859 32.391 24.469 39.469 6.1406 12 9 17.531 10.078 23.391 1.5469 8.0625 2.625 23.625-6.6094 37.312-13.312 19.688-38.297 20.297-41.156 20.297h-0.70312c-1.0781 0-27.609 0.23438-41.391-20.297-9.2812-13.688-8.0625-29.297-6.6094-37.312z"/>
</svg>
