<?xml version="1.0" encoding="UTF-8"?>
<svg width="1200pt" height="1200pt" version="1.1" viewBox="0 0 1200 1200" xmlns="http://www.w3.org/2000/svg">
 <path d="m86.391 998.16c-6 5.1094-15 4.3594-20.109-1.6875-5.1094-6-4.3594-15 1.6875-20.109 22.125-18.656 45-27.984 68.719-27.984 23.531 0 47.109 9.1875 70.781 27.609 18.516 14.391 36.234 21.562 53.25 21.562 16.781 0 33.562-7.0781 50.297-21.188 44.719-37.781 91.219-37.922 139.45-0.375 18.516 14.391 36.234 21.562 53.25 21.562 16.781 0 33.562-7.0781 50.297-21.188 44.719-37.781 91.219-37.922 139.45-0.375 18.516 14.391 36.234 21.562 53.25 21.562 16.781 0 33.562-7.0781 50.297-21.188 22.125-18.656 45-27.984 68.719-27.984 23.531 0 47.109 9.1875 70.781 27.609 18.516 14.391 36.234 21.562 53.25 21.562 16.781 0 33.562-7.0781 50.297-21.188 6-5.1094 15-4.3594 20.109 1.6875 5.1094 6 4.3594 15-1.6875 20.109-22.125 18.656-45 27.984-68.719 27.984-23.531 0-47.109-9.1875-70.781-27.609-18.516-14.391-36.234-21.562-53.25-21.562-16.781 0-33.562 7.0781-50.297 21.188-22.125 18.656-45 27.984-68.719 27.984-23.531 0-47.109-9.1875-70.781-27.609-36.094-28.078-70.594-28.172-103.5-0.375-22.125 18.656-45 27.984-68.719 27.984-23.531 0-47.109-9.1875-70.781-27.609-36.094-28.078-70.594-28.172-103.5-0.375-22.125 18.656-45 27.984-68.719 27.984-23.531 0-47.109-9.1875-70.781-27.609-18.516-14.391-36.234-21.562-53.25-21.562-16.781 0-33.562 7.0781-50.297 21.188zm-23.297-403.31c-0.14062-0.84375-0.23438-1.6875-0.23438-2.5781 0-7.875 6.375-14.297 14.297-14.297h76.359v-193.31c0-7.875 6.375-14.297 14.297-14.297h105.98v-89.672h-14.906c-7.875 0-14.297-6.375-14.297-14.297 0-7.875 6.375-14.297 14.297-14.297h96.844v-63.984c0-7.875 6.375-14.297 14.297-14.297 7.875 0 14.297 6.375 14.297 14.297v63.984h96.844c7.875 0 14.297 6.375 14.297 14.297 0 7.875-6.375 14.297-14.297 14.297h-14.906v89.672h105.98c7.875 0 14.297 6.375 14.297 14.297v193.31h183.37c6.7969 0 14.859-6.2344 23.016-16.125 11.156-13.453 21.234-32.672 28.547-52.969 2.1094-5.8125 7.5469-9.4219 13.406-9.4219v-0.046876h287.95c7.875 0 14.297 6.375 14.297 14.297 0 2.25-0.51562 4.4062-1.4531 6.3281-22.922 56.719-44.578 107.81-64.922 153.24-0.23438 0.70312-0.5625 1.3594-0.89062 1.9688-11.953 26.625-23.484 51.328-34.594 74.062-0.28125 0.65625-0.5625 1.2656-0.9375 1.875-1.4062 2.8594-2.8125 5.7188-4.2188 8.5781-27.938 56.484-53.156 100.45-75.609 131.95 12.047 6.4219 23.766 9.6562 35.156 9.6562 16.781 0 33.562-7.0781 50.297-21.188 6-5.1094 15-4.3594 20.109 1.6875 5.1094 6 4.3594 15-1.6875 20.109-22.125 18.656-45 27.984-68.719 27.984-23.531 0-47.109-9.1875-70.781-27.609-18.516-14.391-36.234-21.562-53.25-21.562-16.781 0-33.562 7.0781-50.297 21.188-22.125 18.656-45 27.984-68.719 27.984-23.531 0-47.109-9.1875-70.781-27.609-36.094-28.078-70.594-28.172-103.5-0.375-22.125 18.656-45 27.984-68.719 27.984-23.531 0-47.109-9.1875-70.781-27.609-36.094-28.078-70.594-28.172-103.5-0.375-22.125 18.656-45 27.984-68.719 27.984-23.531 0-47.109-9.1875-70.781-27.609-18.516-14.391-36.234-21.562-53.25-21.562-16.781 0-33.562 7.0781-50.297 21.188-6 5.1094-15 4.3594-20.109-1.6875-5.1094-6-4.3594-15 1.6875-20.109 21.984-18.562 44.766-27.891 68.297-27.984-16.453-26.859-30.281-57.75-41.578-92.625-1.125-3.4219-2.1562-6.8438-3.2344-10.312-0.28125-0.75-0.51562-1.5-0.70312-2.2969-6.8906-23.25-12.703-48.188-17.438-74.812-0.23438-0.79688-0.375-1.5938-0.42188-2.4375-4.125-23.625-7.3594-48.562-9.7969-74.859zm972.05 87.844h-930.84c3.2812 16.359 6.9844 32.062 11.156 46.969h897.61c7.1719-14.859 14.531-30.516 22.078-46.969zm-853.03-104.72h375.79v-179.02h-375.79zm49.969-110.67h46.875c7.875 0 14.297-6.375 14.297-14.297 0-7.875-6.375-14.297-14.297-14.297h-46.875c-7.875 0-14.297 6.375-14.297 14.297 0 7.875 6.375 14.297 14.297 14.297zm114.47 0h46.875c7.875 0 14.297-6.375 14.297-14.297 0-7.875-6.375-14.297-14.297-14.297h-46.875c-7.875 0-14.297 6.375-14.297 14.297 0 7.875 6.375 14.297 14.297 14.297zm114.52 0h46.875c7.875 0 14.297-6.375 14.297-14.297 0-7.875-6.375-14.297-14.297-14.297h-46.875c-7.875 0-14.297 6.375-14.297 14.297 0 7.875 6.375 14.297 14.297 14.297z" fill-rule="evenodd"/>
</svg>
